<?xml version="1.0" encoding="UTF-8" standalone="no"?>
<svg width="897px" height="154px" viewBox="0 0 897 154" version="1.1" xmlns="http://www.w3.org/2000/svg" xmlns:xlink="http://www.w3.org/1999/xlink" xmlns:sketch="http://www.bohemiancoding.com/sketch/ns">
    <!-- Generator: Sketch 3.3.2 (12043) - http://www.bohemiancoding.com/sketch -->
    <title>Group</title>
    <desc>Created with Sketch.</desc>
    <defs></defs>
    <g id="Page-1" stroke="none" stroke-width="1" fill="none" fill-rule="evenodd" sketch:type="MSPage">
        <g id="Group" sketch:type="MSLayerGroup" fill="#FFFFFF">
            <path d="M297.9,106.9 C314.5,106.9 328,93.4 328,76.8 C328,60.2 314.5,46.7 297.9,46.7 C281.3,46.7 267.8,60.2 267.8,76.8 C267.8,93.4 281.3,106.9 297.9,106.9 L297.9,106.9 Z M259.6,76.7 C259.6,55.5 276.8,38.4 297.9,38.4 C319.1,38.4 336.2,55.6 336.2,76.7 C336.2,97.9 319,115 297.9,115 C276.8,115.1 259.6,97.9 259.6,76.7 L259.6,76.7 Z M206.2,76.7 C210.9,76.1 218.9,70.7 221.6,67.2 C220.6,71.5 220.5,83.9 221.7,88.2 C218.6,83.4 211,77.3 206.2,76.7 L206.2,76.7 Z M178.7,36.1 C184.7,36.1 189.5,42 189.5,48.8 C189.5,55.6 184.8,61.5 178.7,61.5 L158,61.5 L158,36 L178.7,36 L178.7,36.1 L178.7,36.1 Z M178.6,92.7 C184.6,92.7 189.4,98.6 189.4,105.4 C189.4,112.2 184.7,118.1 178.6,118.1 L157.9,118.1 L157.9,92.6 L178.6,92.7 L178.6,92.7 Z M297.9,154 C340.1,154 374.4,118.9 374.4,76.7 C374.4,33.6 340.1,0.1 297.9,0.1 C255.8,0.1 234.2,31.1 228.9,43.6 C228.9,24.8 210.4,2.6 188.7,2.6 L118.9,2.6 L118.9,153.2 L184,153.2 C210.3,153.2 228.9,130.5 229,111 C235,123.3 255.8,154 297.9,154 L297.9,154 Z M110.4,153.3 L69.5,153.3 L69.5,94.8 L42.9,94.8 L42.9,153.3 L0.9,153.3 L0.8,2.6 L43,2.6 L43,58.6 L69.6,58.6 L69.6,2.6 L110.5,2.6 L110.5,153.3 L110.4,153.3 L110.4,153.3 Z M867.4,23 C868.4,23.6 869.8,24.1 871.3,24.1 C873.5,24.1 874.9,22.9 874.9,21.2 C874.9,19.6 874,18.7 871.7,17.8 C868.9,16.8 867.2,15.4 867.2,13 C867.2,10.3 869.4,8.4 872.7,8.4 C874.4,8.4 875.7,8.8 876.5,9.2 L875.9,11 C875.3,10.7 874.2,10.2 872.7,10.2 C870.4,10.2 869.5,11.6 869.5,12.8 C869.5,14.4 870.5,15.2 872.9,16.1 C875.8,17.2 877.2,18.6 877.2,21.1 C877.2,23.7 875.3,26 871.2,26 C869.6,26 867.8,25.5 866.9,24.9 L867.4,23 L867.4,23 Z M894.5,18.2 C894.4,15.8 894.2,13 894.2,10.8 L894.1,10.8 C893.5,12.8 892.8,14.9 892,17.3 L889,25.6 L887.3,25.6 L884.5,17.5 C883.7,15.1 883,12.9 882.5,10.9 C882.5,13 882.3,15.9 882.2,18.4 L881.7,25.7 L879.6,25.7 L880.8,8.7 L883.6,8.7 L886.5,16.9 C887.2,19 887.8,20.9 888.2,22.6 L888.3,22.6 C888.7,20.9 889.3,19 890.1,16.9 L893.1,8.7 L895.9,8.7 L897,25.7 L894.9,25.7 L894.5,18.2 L894.5,18.2 Z M503.8,131.1 L413.7,8.6 L400.5,8.6 L400.5,147.3 L410.2,147.3 L410.2,20.6 L503,147.3 L513.5,147.3 L513.5,8.6 L503.8,8.6 L503.8,131.1 Z M848.5,8.6 L809.5,131.2 L771.9,9.8 L771.5,8.6 L764.5,8.6 L727.3,131.2 L688.2,9.7 L687.9,8.6 L677.6,8.6 L721.7,147.3 L732.6,147.3 L768.1,30.6 L803.6,147.3 L814.3,147.3 L858.6,8.6 L848.5,8.6 Z M604.4,6 C564.2,6 532.7,36.3 532.7,76.7 C532.7,117.7 563.5,149.8 604.4,149.8 C645.3,149.8 676.1,117.7 676.1,76.7 C676.1,35.7 645.3,6 604.4,6 L604.4,6 Z M604.4,141.7 C569.1,141.7 542.8,112.6 542.8,76.8 C542.8,41.1 569.1,14.3 604.4,14.3 C639.7,14.3 666,41 666,76.7 C666,112.5 639.7,141.7 604.4,141.7 L604.4,141.7 Z" id="Shape" sketch:type="MSShapeGroup"></path>
        </g>
    </g>
</svg>